<svg width="21" height="15" viewBox="0 0 21 15" fill="none" xmlns="http://www.w3.org/2000/svg">
<path d="M0.676172 0.989241C0.566523 1.21489 0.5 1.46432 0.5 1.73074V13.2692C0.5 13.5355 0.566445 13.7849 0.676016 14.0105L7.28863 7.49998L0.676172 0.989241Z" fill="#222222"/>
<path d="M12.8828 8.31588L10.8752 10.2156C10.7607 10.3283 10.6108 10.3847 10.4609 10.3847C10.311 10.3847 10.1611 10.3283 10.0467 10.2156L8.11713 8.3158L1.50439 14.8264C1.73361 14.9344 1.98709 15 2.25775 15H18.7421C19.0127 15 19.266 14.9345 19.4952 14.8265L12.8828 8.31588Z" fill="#222222"/>
<path d="M20.3241 0.989603L13.7115 7.50015L20.3239 14.0108C20.4335 13.7851 20.5 13.5357 20.5 13.2693V1.73083C20.5 1.46457 20.4337 1.21518 20.3241 0.989603Z" fill="#222222"/>
<path d="M18.7422 0H2.25785C1.98726 0 1.73394 0.0655001 1.50476 0.173462L10.461 8.99189L12.4684 7.09239L19.4956 0.173615C19.2664 0.0655769 19.0129 0 18.7422 0Z" fill="#222222"/>
</svg>
