<svg width="144" height="121" viewBox="0 0 144 121" fill="none" xmlns="http://www.w3.org/2000/svg">
<path d="M43.6262 0.643677L77.9205 17.1032V57.3952L73.6286 56.1199V21.5469L51.886 12.7393V64.1106L64.64 60.8824L72.9201 64.1703L43.6262 74.2334V0.643677Z" fill="#C94A21"/>
<path d="M100.374 0.600098L72.2946 13.1341L79.2182 16.4021L92.0532 11.9982V63.0507L70.6345 56.3155V21.7624L66.2415 20.0686V60.3008L100.374 73.592V0.600098Z" fill="#222222"/>
<path d="M83.5096 116.953C82.1532 115.538 81.4851 113.566 81.4851 110.995V93.3798C81.4851 90.8093 82.1532 88.8365 83.5096 87.4217C84.8659 86.0069 86.8297 85.3095 89.4007 85.3095C91.9718 85.3095 93.9355 86.0069 95.2919 87.4217C96.6482 88.8365 97.3163 90.8093 97.3163 93.3798V96.8471H92.2349V93.061C92.2349 91.0285 91.3442 90.0122 89.5424 90.0122C87.7407 90.0122 86.8499 91.0285 86.8499 93.061V111.394C86.8499 113.386 87.7407 114.403 89.5424 114.403C91.3442 114.403 92.2349 113.406 92.2349 111.394V106.372H97.3163V111.015C97.3163 113.586 96.6482 115.558 95.2919 116.973C93.9355 118.388 91.9718 119.085 89.4007 119.085C86.8297 119.085 84.8659 118.368 83.5096 116.953Z" fill="#C94A21"/>
<path d="M103.39 92.7421H109.139L113.532 118.607H109.301L108.532 113.466V113.546H103.714L102.945 118.607H98.9969L103.39 92.7421ZM108.026 110.039L106.143 97.2455H106.062L104.22 110.039H108.026Z" fill="#C94A21"/>
<path d="M119.95 118.049C118.452 117.75 117.318 117.073 116.549 116.017C115.759 114.961 115.374 113.606 115.374 111.952V110.258H119.383V112.211C119.383 113.705 120.112 114.463 121.59 114.463C123.047 114.463 123.776 113.685 123.776 112.131C123.776 111.175 123.513 110.298 123.007 109.521C122.501 108.744 121.549 107.847 120.152 106.811C118.431 105.495 117.217 104.28 116.528 103.144C115.84 102.008 115.496 100.733 115.496 99.2983C115.496 97.7041 115.881 96.3889 116.63 95.3527C117.379 94.3166 118.492 93.639 119.97 93.3202V91.0685H123.432V93.3202C124.93 93.6191 126.043 94.2966 126.813 95.3328C127.582 96.3889 127.967 97.724 127.967 99.378V100.115H123.958V99.1189C123.958 97.5845 123.25 96.8273 121.832 96.8273C120.415 96.8273 119.707 97.5646 119.707 99.0392C119.707 99.916 119.97 100.753 120.476 101.49C120.982 102.227 121.934 103.144 123.331 104.2C125.051 105.535 126.266 106.771 126.954 107.907C127.643 109.042 127.987 110.358 127.987 111.832C127.987 113.506 127.602 114.881 126.813 115.957C126.023 117.033 124.889 117.711 123.412 118.01V120.6H119.95V118.049Z" fill="#C94A21"/>
<path d="M130.983 92.7421H135.214V103.263H139.769V92.7421H144V118.607H139.769V106.97H135.214V118.607H130.983V92.7421Z" fill="#C94A21"/>
<path d="M5.62798 90.4906H0V85.8078H16.6208V90.4906H10.9928V118.607H5.62798V90.4906Z" fill="#222222"/>
<path d="M18.7869 92.742H25.0627C27.2491 92.742 28.8484 93.2202 29.8404 94.1967C30.8324 95.1731 31.3385 96.6676 31.3385 98.6802V100.274C31.3385 102.964 30.4072 104.658 28.565 105.376V105.455C29.5975 105.754 30.3263 106.352 30.7514 107.269C31.1765 108.185 31.379 109.401 31.379 110.935V115.478C31.379 116.216 31.3992 116.814 31.46 117.272C31.5207 117.73 31.6422 118.169 31.8446 118.627H27.5325C27.3706 118.208 27.2693 117.81 27.2289 117.451C27.1681 117.073 27.1479 116.415 27.1479 115.459V110.736C27.1479 109.56 26.9454 108.723 26.5405 108.265C26.1357 107.807 25.4473 107.568 24.4756 107.568H23.018V118.647H18.7869V92.742ZM24.5566 103.821C25.4069 103.821 26.0344 103.622 26.4596 103.184C26.8847 102.765 27.0871 102.068 27.0871 101.071V99.0787C27.0871 98.1422 26.9049 97.4647 26.5608 97.0462C26.2166 96.6277 25.67 96.4085 24.921 96.4085H22.9978V103.821H24.5566Z" fill="#222222"/>
<path d="M37.5737 92.742H43.3231L47.7162 118.607H43.4851L42.7158 113.466V113.546H37.8976L37.1283 118.607H33.2009L37.5737 92.742ZM42.2097 110.038L40.327 97.2455H40.246L38.4037 110.038H42.2097Z" fill="#222222"/>
<path d="M51.0163 117.312C49.9433 116.196 49.417 114.642 49.417 112.629V98.7403C49.417 96.7277 49.9433 95.1535 51.0163 94.0575C52.0893 92.9416 53.6278 92.4036 55.6523 92.4036C57.6767 92.4036 59.2356 92.9616 60.2883 94.0575C61.3612 95.1734 61.8876 96.7277 61.8876 98.7403V101.47H57.8792V98.4813C57.8792 96.8872 57.1706 96.0702 55.7535 96.0702C54.3364 96.0702 53.6278 96.8672 53.6278 98.4813V112.928C53.6278 114.502 54.3364 115.3 55.7535 115.3C57.1706 115.3 57.8792 114.502 57.8792 112.928V108.983H61.8876V112.649C61.8876 114.662 61.3612 116.236 60.2883 117.332C59.2153 118.448 57.6767 118.986 55.6523 118.986C53.6278 118.966 52.069 118.428 51.0163 117.312Z" fill="#222222"/>
<path d="M64.4381 92.742H68.6693V103.642L74.0543 92.742H78.2854L73.2648 102.227L78.3866 118.587H73.9531L70.3698 107.069L68.6693 110.357V118.587H64.4381V92.742Z" fill="#222222"/>
</svg>
