<svg width="15" height="21" viewBox="0 0 15 21" fill="none" xmlns="http://www.w3.org/2000/svg">
<path d="M7.5002 0.500015C4.73117 0.500015 2.48639 2.61618 2.48639 5.22656C2.48639 7.83694 2.48639 8.70311 2.48639 8.70311H4.97258C4.97258 8.70311 4.97258 6.54253 4.97258 5.22656C4.97258 3.91059 6.10425 2.84376 7.5002 2.84376C8.89615 2.84376 10.0278 3.91059 10.0278 5.22656C10.0278 6.54253 10.0278 8.70311 10.0278 8.70311H12.514C12.514 8.70311 12.514 7.83694 12.514 5.22656C12.514 2.61618 10.2692 0.500015 7.5002 0.500015Z" fill="#222222"/>
<path d="M0 9.87502V20.5H15V9.87502H0ZM8.12155 15.3228V17.2383H6.87845V15.3228C6.50727 15.1199 6.25691 14.7414 6.25691 14.3086C6.25691 13.6624 6.81456 13.1367 7.5 13.1367C8.18544 13.1367 8.74309 13.6624 8.74309 14.3086C8.74309 14.7414 8.49273 15.1199 8.12155 15.3228Z" fill="#222222"/>
</svg>
